# xmcd
#
# Track frame offsets:
#	150
#	16697
#	26680
#	37275
#	53062
#	68012
#	72637
#	86805
#	100585
#	119372
#	131017
#	146062
#	157865
#	170060
#	183672
#	197307
#	209965
#	223232
#
# Disc length: 3167 seconds
#
# Revision: 0
# Processed by: cddbd v1.5.2PL0 Copyright (c) Steve Scherf et al.
# Submitted via: EasyCDDAExtractor 16.0.6.1
#
DISCID=140c5d12
DTITLE=Williams Robert - Τα ωραιότερά μου τραγούδια-R. Williams
DYEAR=1995
DGENRE=Ελληνική ποπ
TTITLE0=Williams Robert-Αργυράκη Μπέσσυ - Σαν ένα όνειρο
TTITLE1=Williams Robert - Θα ζήσει
TTITLE2=Williams Robert-Αργυράκη Μπέσσυ - Μόνο
TTITLE3=Williams Robert-χορωδία - Τζένη, Τζένη
TTITLE4=Williams Robert-Αργυράκη Μπέσσυ - Το νόημα της αγάπης
TTITLE5=Williams Robert - Γεννήθηκα άνθρωπος
TTITLE6=Williams Robert - Σε σένα (Η μέρα πέρασε)
TTITLE7=Williams Robert - Τέλος πιά, τέλος για μάς
TTITLE8=Williams Robert - Μικρή μου
TTITLE9=Williams Robert - Ελπίδα
TTITLE10=Williams Robert - Πώς θα ζήσουμε
TTITLE11=Williams Robert - Εσύ κι εγώ
TTITLE12=Williams Robert-Αργυράκη Μπέσσυ - Μάθαμε τον έρωτα
TTITLE13=Πασχάλης-Τόλη Μαριάννα-Williams R.-Αργυράκη Μ. - Μάθημα σολφέζ
TTITLE14=Πασχάλης-Τόλη Μαριάννα-Williams R.-Αργυράκη Μ. - I love, i love, i lo
TTITLE14=ve you
TTITLE15=Williams Robert-Αργυράκη Μ.-Αντωνιάδης Τ.-Παγκράτη Ρ. - Σ' αγαπώ
TTITLE16=Αντωνιάδης Τάκης-Williams Robert - Η καρδιά χτυπά μ' ένα μπαμ-μπαμ
TTITLE17=Αντωνιάδης Τάκης-Williams R.-Αργυράκη Μ.-Παγκράτη Ρ. - Πες γειά χαρά
EXTD=
EXTT0=
EXTT1=
EXTT2=
EXTT3=
EXTT4=
EXTT5=
EXTT6=
EXTT7=
EXTT8=
EXTT9=
EXTT10=
EXTT11=
EXTT12=
EXTT13=
EXTT14=
EXTT15=
EXTT16=
EXTT17=
PLAYORDER=
